<svg xmlns="http://www.w3.org/2000/svg" xmlns:xlink="http://www.w3.org/1999/xlink" id="Layer_1_1_" version="1.1" viewBox="0 0 64 64" xml:space="preserve" style="enable-background:new 0 0 64 64"><style type="text/css">.st0{fill:#ffb0aa}.st1{fill:#6e83b7}.st2{fill:#ff7b7b}.st7{fill:#80d6fb}.st8{fill:#46bee8}.st9{fill:#ffe352}.st10{fill:#466089}.st11{fill:#ffb236}</style><g><g><path d="M17,62H5c-0.552,0-1-0.448-1-1V13c0-0.552,0.448-1,1-1h12c0.552,0,1,0.448,1,1v48C18,61.552,17.552,62,17,62z" class="st9"/></g><g><path d="M47,62H35c-0.552,0-1-0.448-1-1V19c0-0.552,0.448-1,1-1h12c0.552,0,1,0.448,1,1v42C48,61.552,47.552,62,47,62 z" class="st0"/></g><g><path d="M33,62H19c-0.552,0-1-0.448-1-1V3c0-0.552,0.448-1,1-1h14c0.552,0,1,0.448,1,1v58C34,61.552,33.552,62,33,62z" class="st7"/></g><g><rect width="10" height="48" x="21" y="8" class="st8"/></g><g><rect width="10" height="2" x="6" y="15" class="st11"/></g><g><rect width="10" height="2" x="6" y="19" class="st11"/></g><g><rect width="10" height="2" x="6" y="53" class="st11"/></g><g><rect width="10" height="2" x="6" y="57" class="st11"/></g><g><rect width="14" height="2" x="34" y="20" class="st2"/></g><g><rect width="14" height="2" x="34" y="58" class="st2"/></g><g><g><g><path d="M48.492,35.681L52,32.598L50.5,30L49,27.402l-4.421,1.496c-0.182-0.115-0.366-0.226-0.557-0.327L43.108,24 h-3h-3l-0.914,4.571c-0.191,0.101-0.375,0.212-0.557,0.327l-4.421-1.496L29.715,30l-1.5,2.598l3.508,3.083v0.637l-3.508,3.083 l1.5,2.598l1.5,2.598l4.421-1.496c0.182,0.115,0.366,0.226,0.557,0.327L37.108,48h3h3l0.914-4.571 c0.191-0.101,0.375-0.212,0.557-0.327L49,44.598L50.5,42l1.5-2.598l-3.508-3.083V35.681z M40.108,39.2 c-1.767,0-3.2-1.433-3.2-3.2s1.433-3.2,3.2-3.2s3.2,1.433,3.2,3.2S41.875,39.2,40.108,39.2z" class="st1"/></g></g><g><path d="M40.107,42.1c-3.363,0-6.1-2.736-6.1-6.1s2.736-6.1,6.1-6.1c3.364,0,6.101,2.736,6.101,6.1 S43.472,42.1,40.107,42.1z M40.107,30.9c-2.812,0-5.1,2.288-5.1,5.1s2.288,5.1,5.1,5.1c2.813,0,5.101-2.288,5.101-5.1 S42.92,30.9,40.107,30.9z" class="st10"/></g></g><g><g><g><path d="M57.807,19.301L60,17.374l-0.938-1.624l-0.938-1.624l-2.763,0.935c-0.114-0.072-0.229-0.141-0.348-0.204 L54.442,12h-1.875h-1.875l-0.571,2.857c-0.119,0.063-0.234,0.133-0.348,0.204l-2.763-0.935l-0.938,1.624l-0.938,1.624 l2.193,1.927v0.398l-2.193,1.927l0.938,1.624l0.938,1.624l2.763-0.935c0.114,0.072,0.229,0.141,0.348,0.204L50.692,27h1.875 h1.875l0.571-2.857c0.119-0.063,0.234-0.133,0.348-0.204l2.763,0.935l0.938-1.624L60,21.626l-2.193-1.927V19.301z M52.567,21.5 c-1.105,0-2-0.895-2-2s0.895-2,2-2s2,0.895,2,2S53.672,21.5,52.567,21.5z" class="st1"/></g></g><g><path d="M52.567,23.5c-2.206,0-4-1.794-4-4s1.794-4,4-4s4,1.794,4,4S54.773,23.5,52.567,23.5z M52.567,16.5 c-1.654,0-3,1.346-3,3s1.346,3,3,3s3-1.346,3-3S54.222,16.5,52.567,16.5z" class="st10"/></g></g></g></svg>