<svg xmlns="http://www.w3.org/2000/svg" xmlns:xlink="http://www.w3.org/1999/xlink" id="Layer_1" width="24" height="24" enable-background="new 0 0 24 24" version="1.1" viewBox="0 0 24 24" xml:space="preserve"><g id="icon"><path fill="#3BAEDA" d="M7.386,7.986H2.6c-0.331,0,-0.6,-0.269,-0.6,-0.6V2.6c0,-0.331,0.269,-0.6,0.6,-0.6h4.786c0.331,0,0.6,0.269,0.6,0.6v4.786C7.986,7.717,7.717,7.986,7.386,7.986zM18.569,8.801l-3.384,-3.384c-0.234,-0.234,-0.234,-0.614,0,-0.849l3.384,-3.384c0.234,-0.234,0.614,-0.234,0.849,0l3.384,3.384c0.234,0.234,0.234,0.614,0,0.849l-3.384,3.384C19.183,9.035,18.803,9.035,18.569,8.801zM7.386,14.986H2.6c-0.331,0,-0.6,-0.269,-0.6,-0.6V9.6c0,-0.331,0.269,-0.6,0.6,-0.6h4.786c0.331,0,0.6,0.269,0.6,0.6v4.786C7.986,14.717,7.717,14.986,7.386,14.986zM14.386,14.986H9.6c-0.331,0,-0.6,-0.269,-0.6,-0.6V9.6c0,-0.331,0.269,-0.6,0.6,-0.6h4.786c0.331,0,0.6,0.269,0.6,0.6v4.786C14.986,14.717,14.717,14.986,14.386,14.986zM7.386,21.986H2.6c-0.331,0,-0.6,-0.269,-0.6,-0.6V16.6c0,-0.331,0.269,-0.6,0.6,-0.6h4.786c0.331,0,0.6,0.269,0.6,0.6v4.786C7.986,21.717,7.717,21.986,7.386,21.986zM14.386,21.986H9.6c-0.331,0,-0.6,-0.269,-0.6,-0.6V16.6c0,-0.331,0.269,-0.6,0.6,-0.6h4.786c0.331,0,0.6,0.269,0.6,0.6v4.786C14.986,21.717,14.717,21.986,14.386,21.986zM21.386,21.986H16.6c-0.331,0,-0.6,-0.269,-0.6,-0.6V16.6c0,-0.331,0.269,-0.6,0.6,-0.6h4.786c0.331,0,0.6,0.269,0.6,0.6v4.786C21.986,21.717,21.717,21.986,21.386,21.986z"/><path fill="#231F20" d="M7.986,2.6v4.786c0,0.331,-0.269,0.6,-0.6,0.6H4.558L6.512,2h0.873C7.717,2,7.986,2.269,7.986,2.6zM22.801,4.569L19.9,1.7l-2.1,6.3l0.769,0.801c0.234,0.234,0.614,0.234,0.849,0l3.384,-3.384C23.035,5.183,23.035,4.803,22.801,4.569zM14.386,9h-0.873l-1.955,5.986h2.828c0.331,0,0.6,-0.269,0.6,-0.6V9.6C14.986,9.269,14.717,9,14.386,9zM7.386,9h-0.873l-1.955,5.986h2.828c0.331,0,0.6,-0.269,0.6,-0.6V9.6C7.986,9.269,7.717,9,7.386,9zM7.386,16h-0.873l-1.955,5.986h2.828c0.331,0,0.6,-0.269,0.6,-0.6V16.6C7.986,16.269,7.717,16,7.386,16zM14.386,16h-0.873l-1.955,5.986h2.828c0.331,0,0.6,-0.269,0.6,-0.6V16.6C14.986,16.269,14.717,16,14.386,16zM21.386,16h-0.873l-1.955,5.986h2.828c0.331,0,0.6,-0.269,0.6,-0.6V16.6C21.986,16.269,21.717,16,21.386,16z" opacity=".14"/></g></svg>