<svg xmlns="http://www.w3.org/2000/svg" xmlns:xlink="http://www.w3.org/1999/xlink" id="Layer_1" width="60" height="60" version="1.1" viewBox="0 0 60 60" xml:space="preserve" style="enable-background:new 0 0 60 60"><style type="text/css">.st3{fill:#fff}.st4{fill:#c5d7db}.st8{fill:#b3c3c7}.st9{fill:#9ca2a3}.st10{fill:#ff443b}</style><g><path d="M4,53.5c-0.2758789,0-0.5-0.2241211-0.5-0.5V21.5h43V53c0,0.2758789-0.2241211,0.5-0.5,0.5H4z" class="st3"/><g><path d="M45,23v29H5V23H45 M48,20H2v33c0,1.1046143,0.8953857,2,2,2h42c1.1046143,0,2-0.8953857,2-2V20L48,20z" class="st8"/></g></g><path d="M2,24v-7c0-1.1046,0.8953969-2,2-2h42c1.1045952,0,2,0.8954,2,2v7H2z" class="st8"/><g><path d="M14,43.5c-0.2758789,0-0.5-0.2241211-0.5-0.5V11.5h43V43c0,0.2758789-0.2241211,0.5-0.5,0.5H14z" class="st3"/><path d="M55,13v29H15V13H55 M58,10H12v33c0,1.1046143,0.8953857,2,2,2h42c1.1046143,0,2-0.8953857,2-2V10L58,10z" class="st4"/></g><path d="M12,14V7c0-1.1046,0.8953972-2,2-2h42c1.1045952,0,2,0.8954,2,2v7H12z" class="st4"/><rect width="4" height="4" x="35" y="5" class="st9"/><rect width="4" height="4" x="41" y="5" class="st9"/><rect width="8" height="4" x="47" y="5" class="st10"/></svg>